<svg xmlns="http://www.w3.org/2000/svg" xmlns:xlink="http://www.w3.org/1999/xlink" version="1.1" width="256" height="256" viewBox="0 0 256 256" xml:space="preserve">
<g style="stroke: none; stroke-width: 0; stroke-dasharray: none; stroke-linecap: butt; stroke-linejoin: miter; stroke-miterlimit: 10; fill: none; fill-rule: nonzero; opacity: 1;" transform="translate(1.4065934065934016 1.4065934065934016) scale(2.81 2.81)">
	<polygon points="11.91,35.56 15.68,28.74 42.75,29.19 53.81,33.36 61.08,39.4 34.78,40.97 15.66,38.53 " style="stroke: none; stroke-width: 1; stroke-dasharray: none; stroke-linecap: butt; stroke-linejoin: miter; stroke-miterlimit: 10; fill: rgb(32,36,30); fill-rule: nonzero; opacity: 1;" transform="  matrix(1 0 0 1 0 0) "/>
	<path d="M 84.18 41.259 l -22.961 -5.208 l -12.063 -7 c -2.348 -1.362 -5.022 -2.082 -7.734 -2.082 h -23.53 c -4.746 0 -9.154 2.136 -12.095 5.861 l -3.368 4.266 c -1.042 1.321 -1.659 2.905 -1.783 4.582 l -0.631 8.508 c -0.181 2.445 1.417 4.643 3.8 5.224 l 3.851 0.938 l 19.572 0.805 h 34.488 l 19.405 -0.351 l 4.646 -0.504 C 88.185 56.036 90 54.012 90 51.591 v -3.043 C 90 45.034 87.607 42.036 84.18 41.259 z M 41.421 29.969 c 2.185 0 4.338 0.58 6.229 1.676 l 9.593 5.566 c -1.954 0.64 -3.985 0.972 -6.061 0.972 H 37.573 l -0.832 -8.214 H 41.421 z M 17.495 34 l 1.48 -4.031 h 14.751 l 0.832 8.214 H 20.415 c -1.031 0 -1.96 -0.485 -2.551 -1.33 C 17.275 36.008 17.139 34.968 17.495 34 z" style="stroke: none; stroke-width: 1; stroke-dasharray: none; stroke-linecap: butt; stroke-linejoin: miter; stroke-miterlimit: 10; fill: rgb(219,51,40); fill-rule: nonzero; opacity: 1;" transform=" matrix(1 0 0 1 0 0) " stroke-linecap="round"/>
	<path d="M 85.777 50.298 l -4.646 0.504 l -19.405 0.351 H 27.237 L 7.665 50.348 L 3.814 49.41 C 2.132 49 0.857 47.778 0.307 46.239 l -0.293 3.948 c -0.181 2.445 1.417 4.643 3.8 5.224 l 3.851 0.938 l 19.572 0.805 h 34.488 l 19.405 -0.351 l 4.646 -0.504 C 88.185 56.036 90 54.012 90 51.591 v -3.043 c 0 -0.569 -0.084 -1.116 -0.203 -1.65 C 89.278 48.703 87.732 50.085 85.777 50.298 z" style="stroke: none; stroke-width: 1; stroke-dasharray: none; stroke-linecap: butt; stroke-linejoin: miter; stroke-miterlimit: 10; fill: rgb(191,37,37); fill-rule: nonzero; opacity: 1;" transform=" matrix(1 0 0 1 0 0) " stroke-linecap="round"/>
	<path d="M 72.367 63.031 c -4.687 0 -8.501 -3.813 -8.501 -8.499 c 0 -4.687 3.813 -8.501 8.501 -8.501 c 4.686 0 8.499 3.813 8.499 8.501 C 80.867 59.217 77.053 63.031 72.367 63.031 z" style="stroke: none; stroke-width: 1; stroke-dasharray: none; stroke-linecap: butt; stroke-linejoin: miter; stroke-miterlimit: 10; fill: rgb(32,36,30); fill-rule: nonzero; opacity: 1;" transform=" matrix(1 0 0 1 0 0) " stroke-linecap="round"/>
	<path d="M 16.691 63.031 c -4.687 0 -8.5 -3.813 -8.5 -8.5 c 0 -4.687 3.813 -8.501 8.5 -8.501 s 8.5 3.813 8.5 8.501 C 25.191 59.217 21.378 63.031 16.691 63.031 z" style="stroke: none; stroke-width: 1; stroke-dasharray: none; stroke-linecap: butt; stroke-linejoin: miter; stroke-miterlimit: 10; fill: rgb(32,36,30); fill-rule: nonzero; opacity: 1;" transform=" matrix(1 0 0 1 0 0) " stroke-linecap="round"/>
	<path d="M 72.357 58.962 c -1.152 0 -2.305 -0.461 -3.121 -1.294 c -0.213 -0.196 -0.39 -0.426 -0.549 -0.674 c -0.159 -0.249 -0.301 -0.497 -0.409 -0.764 c -0.123 -0.265 -0.194 -0.549 -0.265 -0.833 c -0.054 -0.284 -0.071 -0.585 -0.071 -0.87 c 0 -1.169 0.461 -2.305 1.294 -3.121 c 1.029 -1.046 2.555 -1.524 3.991 -1.223 c 0.284 0.052 0.568 0.142 0.833 0.248 c 0.267 0.125 0.533 0.248 0.764 0.407 c 0.248 0.161 0.478 0.355 0.674 0.568 c 0.833 0.816 1.294 1.952 1.294 3.121 c 0 0.284 -0.017 0.585 -0.088 0.87 c -0.052 0.284 -0.142 0.568 -0.248 0.833 c -0.107 0.267 -0.248 0.514 -0.409 0.764 c -0.159 0.248 -0.336 0.478 -0.549 0.674 C 74.682 58.501 73.528 58.962 72.357 58.962 z" style="stroke: none; stroke-width: 1; stroke-dasharray: none; stroke-linecap: butt; stroke-linejoin: miter; stroke-miterlimit: 10; fill: rgb(80,83,78); fill-rule: nonzero; opacity: 1;" transform=" matrix(1 0 0 1 0 0) " stroke-linecap="round"/>
	<path d="M 16.692 58.942 c -1.168 0 -2.319 -0.477 -3.133 -1.291 c -0.814 -0.814 -1.292 -1.965 -1.292 -3.134 c 0 -1.167 0.478 -2.301 1.292 -3.132 c 1.645 -1.646 4.619 -1.646 6.266 0 c 0.814 0.831 1.292 1.965 1.292 3.132 c 0 1.168 -0.478 2.302 -1.292 3.134 C 18.993 58.465 17.86 58.942 16.692 58.942 z" style="stroke: none; stroke-width: 1; stroke-dasharray: none; stroke-linecap: butt; stroke-linejoin: miter; stroke-miterlimit: 10; fill: rgb(80,83,78); fill-rule: nonzero; opacity: 1;" transform=" matrix(1 0 0 1 0 0) " stroke-linecap="round"/>
	<path d="M 80.995 43.129 c 1.266 1.542 3.157 2.437 5.152 2.437 h 3.214 c -0.4 -0.922 -0.969 -1.751 -1.693 -2.437 H 80.995 z" style="stroke: none; stroke-width: 1; stroke-dasharray: none; stroke-linecap: butt; stroke-linejoin: miter; stroke-miterlimit: 10; fill: rgb(206,214,206); fill-rule: nonzero; opacity: 1;" transform=" matrix(1 0 0 1 0 0) " stroke-linecap="round"/>
	<path d="M 2.287 39.592 H 1.089 c -0.229 0.672 -0.391 1.368 -0.444 2.087 l -0.198 2.673 h 1.841 c 0.842 0 1.524 -0.682 1.524 -1.524 v -1.711 C 3.811 40.274 3.129 39.592 2.287 39.592 z" style="stroke: none; stroke-width: 1; stroke-dasharray: none; stroke-linecap: butt; stroke-linejoin: miter; stroke-miterlimit: 10; fill: rgb(191,37,37); fill-rule: nonzero; opacity: 1;" transform=" matrix(1 0 0 1 0 0) " stroke-linecap="round"/>
</g>
</svg>